<svg id="Layer_1" data-name="Layer 1" xmlns="http://www.w3.org/2000/svg" viewBox="0 0 919.02 363.96"><path id="Shape_1_copy_2" data-name="Shape 1 copy 2" d="M562.52,108.36c-14.3,38.7-78.3,65.9-78.3,65.9a235.86,235.86,0,0,1-50.7-19.4,283.93,283.93,0,0,1-25.8,13.1s-81.9-19.4-106.7-62.7c-18.6-32.6-10-72.6,19.5-89.4,24.2-13.9,55-7.6,75.5,13.3,16.7-24,46-35.4,72.3-25.7a57.36,57.36,0,0,1,31.4,28.3A57.68,57.68,0,0,0,474,52.36c-17-17.3-42.4-22.5-62.5-11-18,10.3-26.6,31.2-23.6,52.3-.4-18.6,8.2-36.1,24.2-45.2,20.1-11.5,45.5-6.3,62.5,11,13.8-19.9,38.1-29.3,59.8-21.3C560.62,47.66,573.22,79.16,562.52,108.36Z" fill="#c61d61"/><path d="M38,362.56a33.89,33.89,0,0,1-19.7-6,40.23,40.23,0,0,1-13.5-16.8C1.62,332.66,0,324.36,0,315V158.16a10,10,0,0,1,9.4-10.5h1.1A10,10,0,0,1,21,157v157.9c0,7.9,1.6,14.3,4.8,19.3s7.3,7.4,12.2,7.4h6.9a8.31,8.31,0,0,1,6.6,2.9,11.42,11.42,0,0,1,2.5,7.6,9.47,9.47,0,0,1-3.5,7.6,13.88,13.88,0,0,1-9,2.9Z" fill="#fff"/><path d="M143.42,364q-22,0-39.3-9.9a71.08,71.08,0,0,1-27.2-27.2c-6.6-11.5-9.9-24.7-9.9-39.3q0-22.35,9.9-39.6a71.08,71.08,0,0,1,27.2-27.2q17.4-9.9,39.3-9.9c14.7,0,27.7,3.3,39.2,9.9a72.93,72.93,0,0,1,27.1,27.2q9.9,17.4,10.2,39.6c0,14.7-3.3,27.8-10,39.3a73.2,73.2,0,0,1-27.2,27.2C171.12,360.66,158.12,364,143.42,364Zm0-19.3a55.28,55.28,0,0,0,28.6-7.4,53.15,53.15,0,0,0,19.8-20.4,58.2,58.2,0,0,0,7.1-29.4,61,61,0,0,0-7.1-29.6,52.71,52.71,0,0,0-19.8-20.5,58.79,58.79,0,0,0-57.2,0,53.93,53.93,0,0,0-20,20.5,61.22,61.22,0,0,0-7.3,29.6c0,11,2.4,20.8,7.3,29.4a53.67,53.67,0,0,0,20,20.4A55.28,55.28,0,0,0,143.42,344.66Z" fill="#fff"/><path d="M304.32,362.56c-4.4,0-7.7-2.4-9.9-7.1l-61.1-129.6a9,9,0,0,1-.3-7.2,9.9,9.9,0,0,1,5.5-5.5,8.4,8.4,0,0,1,7.4-.5,10.34,10.34,0,0,1,5.5,5L310,344.46h-11.3l57.8-126.8a8.86,8.86,0,0,1,5.6-5.1,11,11,0,0,1,7.8.4,9.87,9.87,0,0,1,5.2,5.6,8.55,8.55,0,0,1-.3,7l-60.3,129.9C312.62,360.16,309.12,362.56,304.32,362.56Z" fill="#fff"/><path d="M467.82,364c-14.8,0-28-3.3-39.5-9.8a70.31,70.31,0,0,1-27-27.1c-6.5-11.6-9.8-24.8-9.8-39.6,0-15,3.1-28.3,9.2-39.8a69.93,69.93,0,0,1,25.5-27.1c10.8-6.6,23.3-9.9,37.4-9.9,13.9,0,26.1,3.2,36.5,9.5a63.71,63.71,0,0,1,24.1,26.3c5.7,11.2,8.5,23.9,8.5,38.2a9.2,9.2,0,0,1-2.8,7,9.87,9.87,0,0,1-7.2,2.6H405.92v-17.6H525l-11.8,8.5c.2-10.7-1.7-20.2-5.8-28.6a46.5,46.5,0,0,0-17.2-19.8c-7.4-4.8-16.3-7.1-26.5-7.1-10.5,0-19.6,2.5-27.5,7.4a49.62,49.62,0,0,0-18.3,20.5c-4.3,8.7-6.5,18.7-6.5,29.9s2.4,21.1,7.3,29.7a53.67,53.67,0,0,0,20,20.4c8.4,5,18.1,7.4,29.2,7.4a61.77,61.77,0,0,0,20-3.4,48.9,48.9,0,0,0,16.1-8.7,11.52,11.52,0,0,1,6.9-2.6,9.85,9.85,0,0,1,6.6,2.1,10.17,10.17,0,0,1,3.7,7.1,7.88,7.88,0,0,1-3.2,6.6,76.86,76.86,0,0,1-23.1,12.8A81.81,81.81,0,0,1,467.82,364Z" fill="#fff"/><path d="M578.92,362.56c-3.3,0-5.9-.9-7.7-2.8a10.68,10.68,0,0,1-2.8-7.7V222.46c0-3.3.9-5.9,2.8-7.7a10.68,10.68,0,0,1,7.7-2.8c3.3,0,5.9.9,7.7,2.8a10.68,10.68,0,0,1,2.8,7.7v129.6c0,3.3-.9,5.9-2.8,7.7S582.22,362.56,578.92,362.56Zm-1.6-92.7a64,64,0,0,1,8.9-30.5,60.62,60.62,0,0,1,21.2-21.2,55.77,55.77,0,0,1,29-7.7c8.4,0,15,1.2,19.5,3.6s6.3,5.9,5.3,10.5c-.7,2.8-2,4.6-3.7,5.5a11.59,11.59,0,0,1-6.3,1.1q-3.75-.3-8.4-.6c-10.3-.9-19.4.1-27.4,3.2a41.71,41.71,0,0,0-19,13.9c-4.7,6.2-7,13.7-7,22.3Z" fill="#fff"/><path d="M709.32,183.46a14.93,14.93,0,0,1-10.5-4.4,14.41,14.41,0,0,1-4.4-10.7c0-4.6,1.5-8.2,4.5-10.9a15.88,15.88,0,0,1,10.6-4,15.13,15.13,0,0,1,10.3,4c3,2.7,4.5,6.3,4.5,10.9a15.07,15.07,0,0,1-15,15.1Zm.3,179.1a10,10,0,0,1-10.7-9.2V222.86a10,10,0,0,1,9.2-10.7h1.5a10.39,10.39,0,0,1,7.6,2.9,10.69,10.69,0,0,1,2.9,7.8v129a10,10,0,0,1-10.5,10.7Z" fill="#fff"/><path d="M840.32,364a73.58,73.58,0,0,1-38-10,72.61,72.61,0,0,1-26.5-27.4c-6.5-11.6-9.8-24.6-9.8-39.1,0-14.7,3.3-27.8,10-39.4a74.26,74.26,0,0,1,27.4-27.4c11.5-6.7,24.6-10,39.1-10s27.5,3.3,38.9,10a74.47,74.47,0,0,1,27.2,27.4c6.7,11.6,10.2,24.7,10.4,39.4l-8.5,6.6a69.3,69.3,0,0,1-9.2,35.6,68.13,68.13,0,0,1-25,25Q860.42,364,840.32,364Zm2.2-19.3a54.93,54.93,0,0,0,28.5-7.4,53.42,53.42,0,0,0,19.8-20.5,60.07,60.07,0,0,0,7.3-29.3c0-11-2.4-20.8-7.3-29.4a54.87,54.87,0,0,0-19.8-20.5,57,57,0,0,0-56.8,0,55.66,55.66,0,0,0-20.1,20.5,61.72,61.72,0,0,0,0,58.7,54.33,54.33,0,0,0,48.4,27.9Zm65.8,17.9a10.46,10.46,0,0,1-7.7-2.9,10.17,10.17,0,0,1-3-7.6v-47l5.2-21.7,16.2,4.1v64.7a10.32,10.32,0,0,1-3,7.6A11,11,0,0,1,908.32,362.56Z" fill="#fff"/></svg>